<?xml version="1.0" encoding="utf-8"?>
<!-- Generator: Adobe Illustrator 16.0.0, SVG Export Plug-In . SVG Version: 6.00 Build 0)  -->
<!DOCTYPE svg PUBLIC "-//W3C//DTD SVG 1.1//EN" "http://www.w3.org/Graphics/SVG/1.1/DTD/svg11.dtd">
<svg version="1.1" xmlns="http://www.w3.org/2000/svg" xmlns:xlink="http://www.w3.org/1999/xlink" x="0px" y="0px" width="96px"
	 height="96px" viewBox="0 0 96 96" enable-background="new 0 0 96 96" xml:space="preserve">
<g id="Ellipse_2_copie_3_xA0_Image_1_">
</g>
<g id="Forme_1_1_" enable-background="new    ">
	<g>
		<g id="Forme_1">
			<g>
				<polygon fill="#FFFFFF" points="21.16,10.899 18.987,13.299 75.987,83.299 78.16,80.899 				"/>
			</g>
		</g>
		<g>
			<path fill="#FFFFFF" d="M48.263,94C22.714,94,1.929,73.215,1.929,47.666c0-25.548,20.785-46.333,46.334-46.333
				c25.548,0,46.334,20.785,46.334,46.333C94.597,73.215,73.811,94,48.263,94z M48.263,4.643c-23.724,0-43.024,19.3-43.024,43.023
				c0,23.724,19.3,43.024,43.024,43.024c23.724,0,43.024-19.301,43.024-43.024C91.287,23.943,71.986,4.643,48.263,4.643z"/>
		</g>
	</g>
</g>
</svg>
