<?xml version="1.0" ?><svg height="23px" version="1.1" viewBox="0 0 13 23" width="13px" xmlns="http://www.w3.org/2000/svg" xmlns:sketch="http://www.bohemiancoding.com/sketch/ns" xmlns:xlink="http://www.w3.org/1999/xlink"><title/><defs><path d="M2.00000001,0 C2.00000001,0 0,0 0,2.00308167 L0,20.0308166 C0,22.0338983 2.00000001,22.0338983 2.00000001,22.0338983 L11,22.0338983 C11,22.0338983 13,22.0338983 13,20.0308166 L13,2.00308167 C13,0 11,0 11,0 L2.00000001,0 L2.00000001,0 Z M1,2.5 L1,18.5 L12,18.5 L12,2.5 L1,2.5 L1,2.5 Z M6.5,21.1999969 C7.05228477,21.1999969 7.5,20.7522817 7.5,20.1999969 C7.5,19.6477122 7.05228477,19.1999969 6.5,19.1999969 C5.94771523,19.1999969 5.5,19.6477122 5.5,20.1999969 C5.5,20.7522817 5.94771523,21.1999969 6.5,21.1999969 L6.5,21.1999969 Z M4.22129529,1 C4.09907726,1 4.00000001,1.09655358 4.00000001,1.2211029 L4.00000001,1.27966755 C4.00000001,1.4017793 4.09987689,1.50077042 4.22129529,1.50077042 L8.77870471,1.50077042 C8.90092274,1.50077042 8.99999999,1.40421684 8.99999999,1.27966755 L8.99999999,1.2211029 C8.99999999,1.09899114 8.90012311,1 8.77870471,1 L4.22129529,1 L4.22129529,1 Z" id="path-1"/></defs><g fill="none" fill-rule="evenodd" id="miu" stroke="none" stroke-width="1"><g id="device_smart-phone_vertical_glyph"><use fill="#000000" fill-rule="evenodd" xlink:href="#path-1"/><use fill="none" xlink:href="#path-1"/></g></g></svg>