<?xml version="1.0" encoding="utf-8"?>
<!-- Generator: Adobe Illustrator 17.1.0, SVG Export Plug-In . SVG Version: 6.00 Build 0)  -->
<!DOCTYPE svg PUBLIC "-//W3C//DTD SVG 1.1//EN" "http://www.w3.org/Graphics/SVG/1.1/DTD/svg11.dtd">
<svg version="1.1" id="Calque_1" xmlns="http://www.w3.org/2000/svg" xmlns:xlink="http://www.w3.org/1999/xlink" x="0px" y="0px"
	 viewBox="0 0 392.6 158.5" enable-background="new 0 0 392.6 158.5" xml:space="preserve">
<g>
	<path fill="#FFFFFF" d="M222,127.9h-12.2V49.9H222V127.9z"/>
	<path fill="#FFFFFF" d="M253.6,106.2l1.2,5.4h0.3L267,73.8h13.3l-22.4,62.3c-1.4,3.8-3.5,7-6.1,9.7c-2.6,2.7-6.3,4-11.1,4
		c-1,0-2.1-0.1-3.2-0.3s-2.3-0.4-3.3-0.7l1.4-9.4c0.4,0,1.1,0.1,1.9,0.2c0.8,0.1,1.4,0.1,1.8,0.1c2.2,0,4-0.8,5.3-2.3
		c1.3-1.5,2.4-3.2,3.2-5.2l2-4.9l-19.7-53.5h13.3L253.6,106.2z"/>
</g>
<path opacity="0.1" d="M329.1,49.8c-0.2-1.9-0.5-3.8-0.9-5.6c-0.8-3.7-1.8-7.2-2.2-10.9c-0.3-3.7-0.4-7.4-0.3-11.1
	c0-1.5-2.2-1.7-2.3-0.2c-0.1,6.2-0.2,12.6,1.5,18.6c0.7,2.6,1.5,5.5,1.9,8.6l1.6,0.4L329.1,49.8z"/>
<path opacity="0.1" d="M311.9,34c-3.3-2.8-7.9-3.1-11.8-4.3c-3-1-5.6-5.9-7.2-8.4c-0.8-1.2-2.5,0.3-1.7,1.5c1.7,2.7,3.6,5.3,5.8,7.5
	c2.3,2.3,5.9,2.4,8.9,3.3c2.6,0.8,4.9,2.1,6.6,4.2c1.7,2,2.1,5.4,2.3,8.2l2.7,0.7C316.9,41.7,315.4,37,311.9,34z"/>
<g>
	<path opacity="0.1" d="M355.6,85.7l-3.2,1.2l-4.9,6.3l-14.8,7.6l-2.8,7.3l-4.1,2.8h-5.7l-8-4.8l-5.8-6.8l-4.1-10.5l-1.3-5.8v-3.3
		l-2.2-9.5l-0.2-8l-1.7-10.2l4.8-3l3.6-5.2l2.9,0.8c-0.2-0.4-0.5-0.7-0.8-1.1c-3-3.5-8.3-4-11.8-1c-0.9,0.8-1.6,1.7-2.1,2.7
		c-4.2-1-4.9,1.8-4.8,4c-1,0.3-1.9,0.8-2.7,1.5c-3.5,3-4,8.3-1,11.8c2.6,3.1,7,3.8,10.4,2c-0.3,2.4-0.1,5,0.7,7.7
		c-2.9-0.4-5.7-1-8.5-1.7c-2.8-0.7-5.6-1.6-8-3c-2.9-1.6-3.9-5.2-4.5-8.3c-0.5-3.1,0.1-6.6-1.8-9.3c-1.8-2.6-4.1-4.9-6.5-7
		c-1.1-1-2.8,0.5-1.7,1.5c2.5,2.3,5.4,4.8,6.9,7.8c0.8,1.5,0.5,3.9,0.6,5.6c0.2,2.6,0.8,5.1,2,7.5c2.2,4.6,7.7,6.1,12.3,7.3
		c3.3,0.9,6.7,1.5,10.1,1.9c0.4,0.9,0.8,1.9,1.4,2.8c0.1,1.8,0.2,3.8,0.3,5.9c-6.1,1.8-13.7-1.3-19.2-3.7
		c-5.9-2.6-12.3-3.8-18.7-4.7c-1.5-0.2-1.6,2.1-0.2,2.3c7.3,1,13.9,2.9,20.7,5.7c5.3,2.2,11.9,4.1,17.5,2.8c0.2,2.6,0.5,5.2,0.9,7.9
		c0,0-0.1,0.1-0.1,0.1c-4.7,4.1-2,13.8-0.9,18.9c0.8,3.7,1.8,7.3,2.9,11c0.9,3,1.7,7,0.3,10c-0.7,1.3,1.5,2.1,2.2,0.8
		c2.6-5.2-0.4-11.7-1.8-16.8c-1.1-3.9-1.9-7.8-2.5-11.8c-0.3-2.5-1-6.7,0.5-9.2c1.4,7.9,3.9,15.4,8,20c10.7,12.1,21.4,13.5,24.3,0.1
		c6.5,2.8,12.7,2.7,16.8-0.7c3.9-3.3,5-9.1,3.7-15.5c9.8-1.2,11.7-8.1,6.9-17.1l-0.1,0.3L355.6,85.7z"/>
	<path opacity="0.1" d="M373.7,72c-3.2,1-7-0.5-9.8-1.9c-2.3-1.1-4.6-2.2-7-3.2l1.9,3.3c4.6,2.2,10.1,5.6,15.3,4.1
		C375.5,73.8,375.1,71.6,373.7,72z"/>
	<g>
		<path fill="#FFFFFF" d="M374,59c-3.2,1-7-0.5-9.8-1.9c-3.4-1.6-6.8-3.3-10.3-4.7c-4.8-1.9-14-6.1-18.8-2.1
			c-0.3,0.2-0.4,0.5-0.4,0.8c-2.5-0.8-5.1-1.6-7.6-2.2c2.5-5.3,1.7-12,0.6-17.6c-0.8-3.7-1.8-7.2-2.2-10.9
			c-0.3-3.7-0.4-7.4-0.3-11.1c0-1.5-2.2-1.7-2.3-0.2c-0.1,6.2-0.2,12.6,1.5,18.6c1.7,6.1,3.7,14.7,0.4,20.7
			c-0.9-0.2-1.8-0.4-2.7-0.6c-1.6-1.6-3.4-2.9-5.2-4c0.4-7.7,0.4-17.7-5.6-22.7c-3.3-2.8-7.9-3.1-11.8-4.3c-3-1-5.6-5.9-7.2-8.4
			c-0.8-1.2-2.5,0.3-1.7,1.5c1.7,2.7,3.6,5.3,5.8,7.5c2.3,2.3,5.9,2.4,8.9,3.3c2.6,0.8,4.9,2.1,6.6,4.2c2,2.5,2.2,6.9,2.5,9.9
			c0.3,2.6,0.3,5.2,0.3,7.8c-2.3-1-4.6-1.6-6.8-1.6c2.4-3.1,2.3-7.5-0.3-10.5c-3-3.5-8.3-4-11.8-1c-0.9,0.8-1.6,1.7-2.1,2.7
			c-4.2-1-4.9,1.8-4.8,4c-1,0.3-1.9,0.8-2.7,1.5c-3.5,3-4,8.3-1,11.8c2.6,3.1,7,3.8,10.4,2c-0.3,2.4-0.1,5,0.7,7.7
			c-2.9-0.4-5.7-1-8.5-1.7c-2.8-0.7-5.6-1.6-8-3c-2.9-1.6-3.9-5.2-4.5-8.3c-0.5-3.1,0.1-6.6-1.8-9.3c-1.8-2.6-4.1-4.9-6.5-7
			c-1.1-1-2.8,0.5-1.7,1.5c2.5,2.3,5.4,4.8,6.9,7.8c0.8,1.5,0.5,3.9,0.6,5.6c0.2,2.6,0.8,5.1,2,7.5c2.2,4.6,7.7,6.1,12.3,7.3
			c3.3,0.9,6.7,1.5,10.1,1.9c0.4,0.9,0.8,1.9,1.4,2.8c0.1,1.8,0.2,3.8,0.3,5.9c-6.1,1.8-13.7-1.3-19.2-3.7
			c-5.9-2.6-12.3-3.8-18.7-4.7c-1.5-0.2-1.6,2.1-0.2,2.3c7.3,1,13.9,2.9,20.7,5.7c5.3,2.2,11.9,4.1,17.5,2.8
			c0.2,2.6,0.5,5.2,0.9,7.9c0,0-0.1,0.1-0.1,0.1c-4.7,4.1-2,13.8-0.9,18.9c0.8,3.7,1.8,7.3,2.9,11c0.9,3,1.7,7,0.3,10
			c-0.7,1.3,1.5,2.1,2.2,0.8c2.6-5.2-0.4-11.7-1.8-16.8c-1.1-3.9-1.9-7.8-2.5-11.8c-0.3-2.5-1-6.7,0.5-9.2c1.4,7.9,3.9,15.4,8,20
			c10.7,12.1,21.4,13.5,24.3,0.1c6.5,2.8,12.7,2.7,16.8-0.7c3.9-3.3,5-9.1,3.7-15.5c12.2-1.5,12.2-11.8,2.3-23.9
			c-3.9-4.8-11-8.5-18.6-11.2c2.7-1.8,7.3-0.2,10,0.6c3.9,1.1,7.6,2.7,11.2,4.4c4.8,2.2,10.7,6.2,16.3,4.5
			C375.8,60.9,375.4,58.6,374,59z M332.7,97.1c-1.5,17-12.6,16.6-23.8,4c-11.2-12.6-9.4-48.5-9.4-48.5
			C301.4,53.5,334.2,80.1,332.7,97.1z M353.4,63.3c10.6,13.1,9.2,24-7.8,22.8c-17-1.2-38-37.9-38.6-39.9
			C307.1,46.2,342.8,50.2,353.4,63.3z"/>
	</g>
</g>
<circle fill="#FFFFFF" cx="190.5" cy="119.9" r="8"/>
<g>
	<path fill="#FFFFFF" d="M15.2,96.7v31.3h-2.7V55.1h22.8c7.5,0,13.3,1.9,17.4,5.7c4.1,3.8,6.1,8.8,6.1,15.1c0,6.3-2,11.4-6.1,15.2
		c-4.1,3.8-9.9,5.7-17.4,5.7H15.2z M15.2,94h20.1c6.9,0,12.1-1.7,15.6-5.2s5.2-7.7,5.2-12.9c0-5.3-1.7-9.6-5.2-13
		c-3.5-3.4-8.7-5.1-15.6-5.1H15.2V94z"/>
	<path fill="#FFFFFF" d="M90.5,129c-6.2,0-11.5-2.5-16-7.5s-6.7-11.2-6.7-18.6v-3.2c0-7.8,2.2-14.2,6.5-19.3
		c4.3-5.1,9.7-7.6,16.1-7.6c6.1,0,11.1,2,14.9,6c3.9,4,5.8,9.4,5.8,16.1v4.2H70.5v0.7v3.2c0,6.5,1.9,12.1,5.8,16.6
		c3.8,4.5,8.6,6.8,14.3,6.8c4,0,7.4-0.6,10.1-1.7s5-2.8,7-5l1.5,2.1c-2.1,2.4-4.7,4.2-7.8,5.4C98.2,128.4,94.6,129,90.5,129z
		 M90.4,75.5c-5.4,0-9.8,2-13.4,5.9c-3.6,3.9-5.6,8.8-6.1,14.7l0.2,0.3h37.3v-1.7c0-5.5-1.7-10.1-5-13.7
		C100,77.3,95.7,75.5,90.4,75.5z"/>
	<path fill="#FFFFFF" d="M147.5,75.7l-3.5-0.3c-4.8,0-8.8,1.6-11.8,4.7c-3,3.1-5,7.2-5.9,12.3v35.5h-2.7V73.8h2.2l0.5,9.4v1.9
		c1.5-3.9,3.7-6.9,6.7-9c3-2.2,6.6-3.2,11-3.2c0.8,0,1.5,0.1,2.1,0.2c0.7,0.1,1.2,0.2,1.7,0.4L147.5,75.7z"/>
	<path fill="#FFFFFF" d="M159.5,127.9V82.8h-8.3v-9h8.3v-6.3c0-6,1.6-10.6,4.9-13.8c3.3-3.2,7.8-4.9,13.7-4.9c1.2,0,2.4,0.1,3.6,0.3
		c1.2,0.2,2.6,0.4,4.1,0.8l-1.3,9.4c-0.7-0.1-1.4-0.2-2.2-0.4c-0.8-0.1-1.7-0.1-2.6-0.1c-2.6,0-4.6,0.8-5.9,2.3
		c-1.3,1.5-2,3.7-2,6.5v6.3h11v9h-11v45.1H159.5z"/>
</g>
</svg>
