<?xml version="1.0" encoding="utf-8"?>
<!-- Generator: Adobe Illustrator 16.0.0, SVG Export Plug-In . SVG Version: 6.00 Build 0)  -->
<!DOCTYPE svg PUBLIC "-//W3C//DTD SVG 1.1//EN" "http://www.w3.org/Graphics/SVG/1.1/DTD/svg11.dtd">
<svg version="1.1" id="Layer_1" xmlns="http://www.w3.org/2000/svg" xmlns:xlink="http://www.w3.org/1999/xlink" x="0px" y="0px"
	 width="350.108px" height="147.897px" viewBox="0 0 350.108 147.897" enable-background="new 0 0 350.108 147.897"
	 xml:space="preserve">
<g>
	<defs>
		<rect id="SVGID_1_" width="350.108" height="147.897"/>
	</defs>
	<clipPath id="SVGID_2_">
		<use xlink:href="#SVGID_1_"  overflow="visible"/>
	</clipPath>
	<g clip-path="url(#SVGID_2_)">
		<defs>
			<rect id="SVGID_3_" width="350.108" height="147.897"/>
		</defs>
		<clipPath id="SVGID_4_">
			<use xlink:href="#SVGID_3_"  overflow="visible"/>
		</clipPath>
		<g clip-path="url(#SVGID_4_)">
			<path fill="#F9F9F9" d="M12.71,89.352v30.773h-2.702V47.269h22.768c3.87,0,7.272,0.509,10.208,1.526
				c2.935,1.018,5.387,2.452,7.355,4.303c1.968,1.852,3.453,4.087,4.454,6.705c1.001,2.619,1.501,5.529,1.501,8.732
				c0,3.202-0.492,6.088-1.476,8.656c-0.984,2.569-2.46,4.754-4.428,6.556c-1.969,1.801-4.421,3.186-7.356,4.153
				c-2.936,0.968-6.355,1.451-10.258,1.451H12.71z M12.71,86.65h20.065c3.669,0,6.822-0.476,9.458-1.427
				c2.635-0.95,4.795-2.243,6.48-3.878c1.684-1.634,2.918-3.544,3.703-5.729c0.784-2.184,1.176-4.511,1.176-6.98
				c0-2.568-0.392-4.987-1.176-7.256c-0.784-2.268-2.019-4.245-3.703-5.93c-1.685-1.684-3.845-3.019-6.48-4.003
				c-2.636-0.983-5.788-1.476-9.458-1.476H12.71V86.65z"/>
			<path fill="#F9F9F9" d="M89.004,121.126c-3.303,0-6.389-0.668-9.257-2.002c-2.869-1.334-5.379-3.193-7.531-5.579
				c-2.152-2.385-3.845-5.221-5.079-8.507c-1.234-3.285-1.851-6.896-1.851-10.833v-2.202c0-3.936,0.6-7.563,1.801-10.883
				c1.201-3.319,2.827-6.171,4.879-8.557c2.051-2.384,4.453-4.245,7.206-5.579c2.752-1.334,5.696-2.001,8.832-2.001
				c3.002,0,5.762,0.559,8.282,1.676c2.518,1.118,4.687,2.694,6.505,4.729c1.818,2.035,3.235,4.47,4.253,7.306
				c1.017,2.835,1.526,5.972,1.526,9.407v3.152H67.988v0.75v2.202c0,3.37,0.533,6.53,1.601,9.482
				c1.067,2.952,2.543,5.521,4.428,7.706c1.884,2.185,4.111,3.911,6.68,5.179c2.568,1.269,5.337,1.901,8.307,1.901
				c1.534,0,3.027-0.116,4.479-0.351c1.451-0.232,2.844-0.633,4.178-1.2c1.334-0.567,2.618-1.326,3.853-2.277
				c1.234-0.95,2.418-2.159,3.553-3.628l1.901,1.352c-0.901,1.301-1.935,2.485-3.103,3.553c-1.168,1.068-2.494,1.985-3.978,2.752
				c-1.485,0.768-3.127,1.368-4.929,1.802C93.158,120.909,91.172,121.126,89.004,121.126z M88.003,67.685
				c-2.735,0-5.246,0.534-7.531,1.601c-2.285,1.068-4.295,2.544-6.03,4.428c-1.735,1.885-3.145,4.096-4.228,6.63
				c-1.084,2.536-1.776,5.271-2.077,8.207h37.729v-0.65c0-2.702-0.425-5.279-1.276-7.731s-2.051-4.604-3.603-6.455
				c-1.551-1.851-3.428-3.319-5.629-4.403C93.158,68.228,90.706,67.685,88.003,67.685z"/>
			<path fill="#F9F9F9" d="M145.048,67.935c-0.534-0.066-1.093-0.133-1.676-0.2c-0.584-0.066-1.193-0.1-1.826-0.1
				c-2.502,0-4.754,0.434-6.755,1.301c-2.001,0.868-3.736,2.06-5.204,3.578c-1.468,1.518-2.677,3.311-3.628,5.379
				s-1.644,4.32-2.077,6.755v35.478h-2.702V65.983h2.702v11.259c1.468-3.77,3.669-6.756,6.605-8.958
				c2.935-2.202,6.622-3.302,11.059-3.302c0.833,0,1.567,0.05,2.202,0.15c0.633,0.1,1.167,0.234,1.601,0.4L145.048,67.935z"/>
		</g>
		<g clip-path="url(#SVGID_4_)">
			<path fill="#F9F9F9" d="M157.054,120.125V74.991h-8.256v-9.007h8.256v-5.104c0-3.002,0.441-5.67,1.326-8.006
				c0.884-2.335,2.143-4.286,3.778-5.854c1.634-1.568,3.627-2.76,5.979-3.578c2.352-0.817,4.995-1.226,7.931-1.226
				c1.168,0,2.326,0.083,3.479,0.25c1.15,0.167,2.258,0.384,3.326,0.65l-0.299,9.507c-0.668-0.133-1.395-0.233-2.178-0.3
				c-0.783-0.066-1.609-0.1-2.477-0.1c-2.803,0-4.954,0.734-6.455,2.202c-1.501,1.468-2.252,3.62-2.252,6.455v5.104h11.008v9.007
				h-11.008v45.135H157.054z"/>
			<path fill="#F9F9F9" d="M202.039,120.125H189.88V43.266h12.159V120.125z"/>
			<path fill="#F9F9F9" d="M234.214,102.712l11.008-36.729h12.96l-21.517,62.348c-0.5,1.368-1.159,2.844-1.977,4.429
				c-0.817,1.584-1.885,3.061-3.202,4.429c-1.318,1.367-2.928,2.51-4.829,3.428c-1.901,0.917-4.17,1.376-6.805,1.376
				c-1.034,0-2.061-0.093-3.077-0.275c-1.019-0.184-1.944-0.393-2.777-0.626v-9.407c0.3,0.066,0.691,0.108,1.176,0.125
				c0.483,0.017,0.858,0.025,1.126,0.025c1.501,0,2.81-0.125,3.928-0.375c1.117-0.25,2.093-0.668,2.928-1.251
				c0.833-0.584,1.551-1.335,2.151-2.252c0.601-0.918,1.134-2.061,1.602-3.428l1.751-4.653l-19.015-53.892h13.11L234.214,102.712z"
				/>
		</g>
		<g opacity="0.1" clip-path="url(#SVGID_4_)">
			<g>
				<defs>
					<rect id="SVGID_5_" x="234.255" y="12.973" width="115.551" height="113.792"/>
				</defs>
				<clipPath id="SVGID_6_">
					<use xlink:href="#SVGID_5_"  overflow="visible"/>
				</clipPath>
				<path clip-path="url(#SVGID_6_)" d="M348.534,64.205c-3.225,0.987-6.961-0.547-9.826-1.885
					c-3.431-1.603-6.815-3.259-10.327-4.685c-4.8-1.949-13.981-6.122-18.78-2.145c-0.274,0.227-0.395,0.502-0.405,0.774
					c-1.37-0.452-2.745-0.871-4.115-1.267l-0.011-0.006l-0.015-0.002c-1.164-0.336-2.325-0.658-3.47-0.954
					c2.533-5.262,1.749-12.022,0.58-17.627c-0.769-3.689-1.829-7.151-2.158-10.932c-0.323-3.69-0.354-7.431-0.267-11.134
					c0.035-1.471-2.248-1.666-2.283-0.186c-0.144,6.158-0.181,12.637,1.458,18.61c1.682,6.124,3.69,14.74,0.413,20.703
					c-0.917-0.222-1.813-0.428-2.696-0.626c-1.618-1.598-3.367-2.934-5.175-3.984c0.43-7.701,0.369-17.659-5.59-22.66
					c-3.327-2.792-7.888-3.069-11.848-4.348c-2.995-0.967-5.577-5.885-7.201-8.413c-0.797-1.24-2.533,0.258-1.746,1.482
					c1.708,2.659,3.58,5.285,5.837,7.506c2.326,2.29,5.882,2.383,8.865,3.292c2.613,0.796,4.876,2.095,6.603,4.232
					c2.008,2.483,2.181,6.872,2.492,9.929c0.265,2.577,0.346,5.201,0.293,7.811c-2.277-1.001-4.591-1.555-6.797-1.629
					c2.361-3.071,2.35-7.474-0.26-10.547c-3.002-3.536-8.302-3.968-11.838-0.966c-0.897,0.761-1.592,1.671-2.084,2.662
					c-4.223-1.026-4.862,1.843-4.796,3.951c-0.97,0.331-1.896,0.838-2.724,1.541c-3.536,3.002-3.969,8.302-0.967,11.838
					c2.609,3.073,6.952,3.799,10.366,1.967c-0.313,2.399-0.077,5.02,0.696,7.668c-2.874-0.394-5.728-0.967-8.535-1.672
					c-2.764-0.695-5.551-1.604-8.043-3.002c-2.924-1.641-3.941-5.216-4.456-8.27c-0.526-3.124,0.106-6.566-1.811-9.282
					c-1.825-2.587-4.112-4.86-6.46-6.977c-1.08-0.974-2.84,0.496-1.746,1.483c2.516,2.269,5.357,4.802,6.935,7.834
					c0.775,1.489,0.475,3.93,0.612,5.555c0.221,2.609,0.812,5.119,1.956,7.477c2.241,4.616,7.707,6.11,12.254,7.343
					c3.306,0.897,6.73,1.521,10.146,1.921c0.387,0.935,0.838,1.866,1.357,2.784c0.066,1.839,0.169,3.81,0.318,5.866
					c-6.139,1.774-13.683-1.281-19.164-3.725c-5.895-2.629-12.305-3.811-18.675-4.705c-1.465-0.206-1.643,2.078-0.186,2.283
					c7.291,1.023,13.894,2.882,20.66,5.683c5.255,2.175,11.853,4.144,17.548,2.752c0.227,2.562,0.535,5.215,0.941,7.863
					c-0.049,0.032-0.098,0.062-0.146,0.104c-4.729,4.112-2.03,13.8-0.93,18.878c0.802,3.695,1.841,7.339,2.948,10.952
					c0.919,2.996,1.744,7.019,0.268,10.001c-0.654,1.321,1.513,2.069,2.16,0.76c2.565-5.178-0.42-11.718-1.806-16.796
					c-1.06-3.881-1.933-7.816-2.483-11.804c-0.346-2.495-0.989-6.68,0.473-9.192c1.448,7.865,3.885,15.374,7.953,19.962
					c10.75,12.122,21.354,13.514,24.342,0.081c6.465,2.775,12.733,2.746,16.835-0.737c3.904-3.314,5.038-9.073,3.682-15.508
					c12.219-1.465,12.156-11.815,2.332-23.904c-2.528-3.112-6.414-5.73-10.898-7.93l-0.025-0.024l-0.039-0.006
					c-2.426-1.187-5.019-2.258-7.683-3.207c2.674-1.808,7.301-0.217,10.014,0.572c3.859,1.122,7.587,2.717,11.245,4.366
					c4.81,2.167,10.736,6.203,16.28,4.506C350.33,66.034,349.943,63.773,348.534,64.205"/>
			</g>
		</g>
		<path clip-path="url(#SVGID_4_)" fill="#ADCC3D" d="M281.18,36.871l15.021,4.014l9.171,1.134l9.349,4.51l4.697,0.729l2.219,2.086
			l3.352,2.348l3.983,3.379l5.371,7.952l1.149,7.136l-0.847,5.537l-4.962,2.691l-6.96,1.272l-10.401,10.513l-5.489,4.831
			l-1.742,5.517l-3.52,2.366l-5.562,0.171c0,0-5.135-2.689-5.313-2.693c-0.18-0.004-7.143-6.32-7.143-6.32l-5.076-7.826
			l-3.188-11.904l-0.767-8.143l-1.014-12.929l-1.065-10.659L281.18,36.871z"/>
		<path clip-path="url(#SVGID_4_)" fill="#FFFFFF" d="M348.837,51.233c-3.226,0.987-6.962-0.547-9.826-1.886
			c-3.432-1.603-6.816-3.258-10.329-4.684c-4.798-1.949-13.98-6.122-18.779-2.146c-0.274,0.228-0.394,0.503-0.405,0.775
			c-2.544-0.84-5.112-1.582-7.609-2.229c2.533-5.263,1.749-12.022,0.58-17.628c-0.77-3.688-1.829-7.151-2.16-10.931
			c-0.322-3.69-0.353-7.432-0.265-11.134c0.033-1.472-2.248-1.666-2.283-0.187c-0.145,6.159-0.183,12.638,1.458,18.611
			c1.68,6.124,3.688,14.74,0.413,20.703c-0.918-0.223-1.814-0.429-2.697-0.626c-1.618-1.598-3.367-2.934-5.174-3.984
			c0.429-7.701,0.369-17.659-5.591-22.661c-3.326-2.791-7.889-3.068-11.849-4.347c-2.994-0.968-5.576-5.885-7.2-8.414
			c-0.797-1.239-2.532,0.259-1.747,1.483c1.709,2.659,3.581,5.284,5.839,7.506c2.325,2.29,5.882,2.383,8.864,3.292
			c2.613,0.796,4.876,2.095,6.604,4.231c2.007,2.484,2.18,6.873,2.492,9.93c0.264,2.577,0.344,5.2,0.292,7.81
			c-2.277-1.001-4.591-1.554-6.796-1.628c2.36-3.071,2.349-7.474-0.261-10.547c-3.002-3.536-8.302-3.969-11.838-0.966
			c-0.896,0.761-1.592,1.671-2.084,2.661c-4.222-1.025-4.862,1.843-4.796,3.952c-0.969,0.331-1.896,0.838-2.724,1.541
			c-3.535,3.002-3.969,8.302-0.966,11.838c2.608,3.073,6.951,3.798,10.364,1.967c-0.312,2.399-0.076,5.02,0.696,7.668
			c-2.873-0.394-5.726-0.967-8.534-1.673c-2.763-0.694-5.551-1.603-8.043-3.001c-2.924-1.641-3.94-5.216-4.456-8.271
			c-0.525-3.123,0.107-6.565-1.81-9.281c-1.826-2.587-4.113-4.86-6.46-6.977c-1.08-0.974-2.84,0.495-1.746,1.482
			c2.515,2.269,5.356,4.802,6.934,7.834c0.776,1.49,0.476,3.931,0.612,5.556c0.221,2.609,0.812,5.119,1.957,7.477
			c2.241,4.616,7.707,6.11,12.253,7.343c3.306,0.896,6.729,1.521,10.146,1.921c0.388,0.935,0.839,1.866,1.357,2.784
			c0.067,1.839,0.169,3.81,0.318,5.866c-6.139,1.775-13.683-1.281-19.163-3.726c-5.896-2.629-12.306-3.81-18.675-4.704
			c-1.466-0.206-1.645,2.078-0.187,2.283c7.291,1.023,13.893,2.882,20.66,5.683c5.255,2.175,11.853,4.143,17.548,2.751
			c0.226,2.563,0.535,5.215,0.942,7.865c-0.05,0.032-0.099,0.062-0.146,0.103c-4.728,4.113-2.03,13.801-0.929,18.879
			c0.801,3.695,1.84,7.339,2.948,10.951c0.919,2.997,1.743,7.02,0.267,10.002c-0.654,1.32,1.513,2.067,2.161,0.76
			c2.564-5.178-0.42-11.718-1.806-16.796c-1.061-3.882-1.934-7.817-2.484-11.804c-0.345-2.495-0.989-6.68,0.473-9.193
			c1.448,7.866,3.884,15.375,7.953,19.963c10.749,12.122,21.355,13.513,24.342,0.08c6.464,2.776,12.733,2.746,16.835-0.737
			c3.904-3.313,5.038-9.072,3.683-15.508c12.217-1.465,12.154-11.815,2.331-23.903c-3.907-4.808-11.029-8.454-18.646-11.167
			c2.673-1.808,7.301-0.217,10.015,0.572c3.857,1.122,7.587,2.717,11.243,4.365c4.812,2.168,10.737,6.204,16.281,4.507
			C350.632,53.061,350.245,50.802,348.837,51.233 M307.474,89.298c-1.528,16.989-12.565,16.611-23.751,3.997
			c-11.188-12.613-9.36-48.512-9.36-48.512C276.244,45.693,309.003,72.307,307.474,89.298 M328.232,55.504
			c10.633,13.084,9.216,24.036-7.797,22.789c-17.014-1.248-37.963-37.887-38.554-39.893C281.882,38.4,317.6,42.42,328.232,55.504"/>
	</g>
</g>
</svg>
